<svg xmlns="http://www.w3.org/2000/svg" xmlns:xlink="http://www.w3.org/1999/xlink" version="1.1" width="1000" height="1000" viewBox="0 0 1000 1000" xml:space="preserve">
<desc>Created with Fabric.js 3.5.0</desc>
<defs>
</defs>
<rect x="0" y="0" width="100%" height="100%" fill="rgba(255,255,255,0)"/>
<g transform="matrix(1 0 0 1 500 500)" id="251619">
<path style="stroke: none; stroke-width: 1; stroke-dasharray: none; stroke-linecap: butt; stroke-dashoffset: 0; stroke-linejoin: miter; stroke-miterlimit: 4; is-custom-font: none; font-file-url: none; fill: rgb(0,0,0); fill-rule: nonzero; opacity: 1;" vector-effect="non-scaling-stroke" transform=" translate(-16, -16)" d="M 4 10 h 24 c 1.104 0 2 -0.896 2 -2 s -0.896 -2 -2 -2 H 4 C 2.896 6 2 6.896 2 8 S 2.896 10 4 10 z M 28 14 H 4 c -1.104 0 -2 0.896 -2 2 s 0.896 2 2 2 h 24 c 1.104 0 2 -0.896 2 -2 S 29.104 14 28 14 z M 28 22 H 4 c -1.104 0 -2 0.896 -2 2 s 0.896 2 2 2 h 24 c 1.104 0 2 -0.896 2 -2 S 29.104 22 28 22 z" stroke-linecap="round"/>
</g>
<g transform="matrix(1.5875 0 0 1.5875 500.0047 500.0047)" id="709968">
<g style="" vector-effect="non-scaling-stroke">
		<g transform="matrix(1 0 0 1 0 -104)">
<line style="stroke: rgb(255,255,255); stroke-width: 48; stroke-dasharray: none; stroke-linecap: round; stroke-dashoffset: 0; stroke-linejoin: miter; stroke-miterlimit: 10; is-custom-font: none; font-file-url: none; fill: none; fill-rule: nonzero; opacity: 1;" x1="-168" y1="0" x2="168" y2="0"/>
</g>
		<g transform="matrix(1 0 0 1 0 0)">
<line style="stroke: rgb(255,255,255); stroke-width: 48; stroke-dasharray: none; stroke-linecap: round; stroke-dashoffset: 0; stroke-linejoin: miter; stroke-miterlimit: 10; is-custom-font: none; font-file-url: none; fill: none; fill-rule: nonzero; opacity: 1;" x1="-168" y1="0" x2="168" y2="0"/>
</g>
		<g transform="matrix(1 0 0 1 0 104)">
<line style="stroke: rgb(255,255,255); stroke-width: 48; stroke-dasharray: none; stroke-linecap: round; stroke-dashoffset: 0; stroke-linejoin: miter; stroke-miterlimit: 10; is-custom-font: none; font-file-url: none; fill: none; fill-rule: nonzero; opacity: 1;" x1="-168" y1="0" x2="168" y2="0"/>
</g>
</g>
</g>
</svg>