<svg width="253" height="188" viewBox="0 0 253 188" fill="none" xmlns="http://www.w3.org/2000/svg">
<path d="M250.478 27.4144C248.162 24.3149 244.613 22.5362 240.744 22.5362H48.1325L45.6428 12.9457C43.6646 5.32214 36.7829 0 28.9065 0H2.81C1.25888 0 0 1.25888 0 2.81C0 4.36112 1.25888 5.62 2.81 5.62H28.9065C34.223 5.62 38.8679 9.21399 40.2055 14.3591L71.5791 135.175C71.8995 136.414 73.0178 137.28 74.2992 137.28H220.984C222.538 137.28 223.794 136.024 223.794 134.47C223.794 132.916 222.538 131.66 220.984 131.66H76.4713L69.733 105.718H219.506C227.104 105.718 233.916 100.626 236.068 93.3426L252.391 38.1289C253.49 34.4197 252.79 30.5138 250.478 27.4144ZM247.002 36.5356L230.679 91.7493C229.223 96.6668 224.631 100.101 219.503 100.101H68.2746L49.5909 28.159H240.741C242.821 28.159 244.726 29.1144 245.971 30.7807C247.215 32.4443 247.592 34.5405 247.002 36.5356Z" fill="white"/>
<path d="M99.6708 187.32C89.0996 187.32 80.501 178.719 80.501 168.15C80.501 157.582 89.1024 148.981 99.6708 148.981C110.242 148.981 118.843 157.582 118.843 168.15C118.843 178.719 110.242 187.32 99.6708 187.32ZM99.6708 154.598C92.199 154.598 86.121 160.676 86.121 168.148C86.121 175.619 92.199 181.697 99.6708 181.697C107.143 181.697 113.223 175.619 113.223 168.148C113.223 160.676 107.143 154.598 99.6708 154.598Z" fill="white"/>
<path d="M191.839 187.32C181.268 187.32 172.669 178.719 172.669 168.15C172.669 157.582 181.27 148.981 191.839 148.981C202.413 148.981 211.011 157.582 211.011 168.15C211.011 178.719 202.41 187.32 191.839 187.32ZM191.839 154.598C184.367 154.598 178.289 160.676 178.289 168.148C178.289 175.619 184.367 181.697 191.839 181.697C199.311 181.697 205.391 175.619 205.391 168.148C205.391 160.676 199.311 154.598 191.839 154.598Z" fill="white"/>
</svg>
